<svg width="401.000000" height="174.000000" viewBox="0 0 401 174" fill="none" xmlns="http://www.w3.org/2000/svg" xmlns:xlink="http://www.w3.org/1999/xlink">
	<desc>
			Created with Pixso.
	</desc>
	<defs>
		<linearGradient x1="406.664307" y1="67.236755" x2="-55.028412" y2="-41.363525" id="paint_linear_0_11_0" gradientUnits="userSpaceOnUse">
			<stop stop-color="#14D3C9"/>
			<stop offset="1.000000" stop-color="#9146FF"/>
		</linearGradient>
	</defs>
	<path id="MARiK" d="M236.73 0L239.47 1.85L240.79 0.89L242.22 0.89C250.9 0.89 259.44 17.5 267.84 50.73L267.84 41.02L274.77 35.37C277.55 37.26 280.78 38.2 284.44 38.2C288.18 39.74 290.05 42.56 290.05 46.67L290.05 77.59C314.24 59.51 328.1 46.08 331.61 37.31L338.54 33.52L344.15 33.52C352.43 36.59 356.57 39.41 356.57 41.99C354.23 42.78 347.3 50.27 335.79 64.44L326.12 71.94L326.12 72.91C347.52 66.02 360.46 62.58 364.93 62.58L366.36 62.58Q375.19 62.58 379.72 66.99Q381.79 69.01 382.96 71.94C378.49 71.94 372.48 90.08 364.93 126.35L364.93 128.21L382.96 116.02L388.46 115.13L396.82 119.81L398.25 118.84L401 124.49Q380.54 137.8 363.5 157.27L358 160.1C347.81 157.37 342.72 154.25 342.72 150.73L342.72 132C342.72 120.9 346.42 103.38 353.83 79.45L342.72 82.28L342.72 88.82L338.54 88.82L338.54 84.13L330.3 86.07L330.3 114.16L326.12 114.16L326.12 87.92C318.71 87.92 315.01 92.28 315.01 101.01L310.83 101.01L310.83 92.61L309.4 92.61Q294.23 96.84 294.23 98.26Q313.58 133.41 313.58 137.58L302.48 140.4C295.44 138.57 290.38 133.88 287.3 126.35C287.21 126.13 287.12 125.92 287.03 125.7L289.61 134.6L286.86 136.46L286.86 148.35L282.79 148.35L282.79 138.24L277.41 137.35L277.41 172.14L274.66 174L272.02 168.5L272.02 167.6L273.34 166.64L272.02 165.75L272.02 158.46L273.34 151.1L272.02 143.74L272.02 142.85L273.34 141.96L272.02 140.99L272.02 140.1L273.34 139.21L273.34 138.24C268.79 136.01 264.29 125.04 259.82 105.32C258.28 99.22 256.92 96.17 255.75 96.17L243.94 99.7C243.92 100.11 243.89 100.52 243.87 100.93L243.87 102.86C243.87 110.99 246.73 124.87 252.45 144.49L251.02 144.49L245.3 148.35C233.87 145.58 228.15 140.42 228.15 132.89C223.38 124.07 221 112.77 221 99L222.43 82.57C194.36 91.59 180.03 96.74 179.44 98.03L198.02 137.72L196.59 138.69L195.16 138.69L193.73 137.72L189.45 140.62L186.59 140.62C175.15 137.05 169.43 130.59 169.43 121.22L159.43 103.83Q157.66 103.83 155.62 103.36Q172.73 135.79 172.73 140.7L175.59 160.1L168.44 163.96L165.59 163.96Q159.32 162.56 155.8 158.67Q151.29 153.69 151.29 144.64C151.29 138.74 147.96 129.37 141.28 116.54L124.13 116.54L124.13 128.08C127.33 135.52 129.57 141.26 130.84 145.31L133.37 156.45C132.56 165.62 129.59 170.2 124.46 170.2C117.87 168.32 113.65 166.32 111.82 164.18L111.82 156.45Q111.82 146.92 103.77 126.58C102.19 124.87 101.33 122.76 101.18 120.25Q100.08 117.65 98.87 114.9C97.21 113.37 94.63 111.99 91.15 110.74L89.72 109.78L89.72 108.81L91.15 107.84L93.95 104.06Q84.03 82.85 68.61 54.25L64.76 44.81L63.55 44.81L63.55 48.23C63.55 78.21 66.52 104.28 72.45 126.43C70.11 126.43 67.54 127.27 64.76 128.95L62.23 128.95Q60.03 128.34 58 127.36Q48.8 122.91 43.21 110.97L21.55 64.59L20.34 64.59L20.34 79.15Q20.34 116.06 37.6 127.99Q39.07 129.01 40.68 129.85L41.89 133.26L32.98 136.68C28.29 136.68 20.67 131.83 10.11 122.12Q0 102.34 0 74.92L0 55.96Q4.43 30.41 12.11 29.4Q12.43 29.35 12.75 29.35L13.96 29.35Q14.62 31.36 24.18 33.67Q41.89 68.9 44.42 68.9L43.21 64.59L43.21 23.33Q47.3 1.5 53.08 1.05Q53.2 1.04 53.32 1.04L55.85 1.04L61.02 3.64L62.23 2.75Q64.63 3.8 66.27 5.56L66.27 5.56Q69.82 9.38 69.82 16.5Q88.2 52.49 101.15 78.97L101.15 74.92L104.01 51.65L104.01 47.79L109.73 42.96L114.02 42.96Q125.75 45.06 130.12 51.75C130.78 51.64 131.46 51.58 132.16 51.58L132.16 43.85Q134.83 39.89 138.45 38.6Q140.2 37.98 142.17 37.98L145.02 41.92L146.45 40.95L147.88 40.95L150.74 42.88L152.17 41.92L156.57 48.68L212.32 43.85C221.92 46.42 226.72 49.65 226.72 53.51L200.88 72.84L200.88 73.8L232.44 62.21L236.73 62.21C246.25 64.54 251.02 68.08 251.02 72.84C248.67 72.84 246.86 76.4 245.6 83.53Q253.43 81.12 265.2 78.78L266.52 78.78C266.98 78.95 267.42 79.12 267.84 79.28L267.84 70.54L263.88 72.32C253.91 70.73 248.93 67.39 248.93 62.28Q248.93 54.03 232.66 11L227.27 4.6C229.1 4.6 230.02 3.36 230.02 0.89L231.34 0L236.73 0ZM166.57 75.73C164.67 75.73 161.81 71.23 158 62.21L186.59 59.31L166.57 75.73ZM148.71 90.43L150.74 88.37L135.02 64.14C134.72 64.06 134.43 63.97 134.14 63.89Q142.28 78.54 148.71 90.43ZM124.13 89.41L124.13 101.97L126.99 103.98L132.71 103.98L125.56 89.41L124.13 89.41Z" fill="url(#paint_linear_0_11_0)" fill-opacity="1.000000" fill-rule="evenodd"/>
</svg>
