<svg width="25" height="25" viewBox="0 0 25 25" fill="none" xmlns="http://www.w3.org/2000/svg">
<g clip-path="url(#clip0_0_21)">
<path d="M14.8 18.8C14.41 18.41 14.41 17.78 14.8 17.39L18.67 13.5H3.50003C2.95003 13.5 2.50003 13.05 2.50003 12.5C2.50003 11.95 2.95003 11.5 3.50003 11.5H18.67L14.79 7.61998C14.4 7.22998 14.4 6.59998 14.79 6.20998C15.18 5.81998 15.81 5.81998 16.2 6.20998L21.8 11.8C22.19 12.19 22.19 12.82 21.8 13.21L16.21 18.8C15.82 19.18 15.18 19.18 14.8 18.8Z" fill="white"/>
</g>
<defs>
<clipPath id="clip0_0_21">
<rect width="24" height="24" fill="white" transform="matrix(-1 0 0 1 24.5 0.5)"/>
</clipPath>
</defs>
</svg>
