<svg width="18" height="18" viewBox="0 0 18 18" fill="none" xmlns="http://www.w3.org/2000/svg">
<g clip-path="url(#clip0_11_36)">
<path d="M14.745 2.9925C12.765 1.6425 10.32 2.2725 8.99998 3.8175C7.67998 2.2725 5.23498 1.635 3.25498 2.9925C2.20498 3.7125 1.54498 4.9275 1.49998 6.21C1.39498 9.12 3.97498 11.4525 7.91248 15.03L7.98748 15.0975C8.55748 15.615 9.43498 15.615 10.005 15.09L10.0875 15.015C14.025 11.445 16.5975 9.1125 16.5 6.2025C16.455 4.9275 15.795 3.7125 14.745 2.9925V2.9925ZM9.07498 13.9125L8.99998 13.9875L8.92498 13.9125C5.35498 10.68 2.99998 8.5425 2.99998 6.375C2.99998 4.875 4.12498 3.75 5.62498 3.75C6.77998 3.75 7.90498 4.4925 8.30248 5.52H9.70498C10.095 4.4925 11.22 3.75 12.375 3.75C13.875 3.75 15 4.875 15 6.375C15 8.5425 12.645 10.68 9.07498 13.9125Z" fill="#323232"/>
</g>
<defs>
<clipPath id="clip0_11_36">
<rect width="18" height="18" fill="white"/>
</clipPath>
</defs>
</svg>
