<svg width="660.000000" height="299.965210" viewBox="0 0 660 299.965" fill="none" xmlns="http://www.w3.org/2000/svg" xmlns:xlink="http://www.w3.org/1999/xlink">
	<desc>
			Created with Pixso.
	</desc>
	<defs/>
	<path id="MARiK" d="M389.63 0L394.15 3.2L396.32 1.53L398.67 1.53C412.95 1.53 427.01 30.18 440.84 87.47L440.84 70.73L452.24 60.99C456.83 64.23 462.13 65.86 468.17 65.86C474.32 68.5 477.4 73.37 477.4 80.46L477.4 133.77C517.21 102.59 540.01 79.44 545.8 64.32L557.2 57.78L566.43 57.78C580.07 63.08 586.88 67.95 586.88 72.39Q581.09 74.44 552.68 111.09L536.75 124.03L536.75 125.7C571.98 113.82 593.28 107.89 600.64 107.89L602.99 107.89Q616.84 107.89 624.26 114.79Q628.19 118.44 630.32 124.03C622.96 124.03 613.06 155.3 600.64 217.83L600.64 221.03L630.32 200.02L639.36 198.48L653.12 206.55L655.47 204.88L660 214.62C637.56 229.91 616.98 248.75 598.28 271.13L589.24 276C572.46 271.3 564.08 265.92 564.08 259.85L564.08 227.56C564.08 208.43 570.17 178.23 582.36 136.97L564.08 141.84L564.08 153.12L557.2 153.12L557.2 145.04L543.63 148.38L543.63 196.81L536.75 196.81L536.75 151.58C524.57 151.58 518.48 159.1 518.48 174.13L511.6 174.13L511.6 159.65L509.25 159.65C492.6 164.52 484.27 167.77 484.27 169.39C505.51 209.8 516.12 232.39 516.12 237.17L497.85 242.04Q492.29 240.53 487.74 237.51Q478.04 231.08 472.87 217.83C472.72 217.45 472.58 217.08 472.43 216.7L476.67 232.05L472.15 235.25L472.15 255.75L465.45 255.75L465.45 238.33L456.58 236.79L456.58 296.76L452.06 299.96L447.72 290.48L447.72 288.94L449.89 287.28L447.72 285.74L447.72 273.18L449.89 260.49L447.72 247.81L447.72 246.27L449.89 244.73L447.72 243.07L447.72 241.53L449.89 239.99L449.89 238.33C442.41 234.48 434.99 215.56 427.63 181.56C425.1 171.06 422.86 165.8 420.93 165.8L401.5 171.88C401.46 172.58 401.42 173.29 401.39 174L401.39 177.34Q401.39 198.35 415.5 249.09L413.15 249.09L403.74 255.75C384.92 250.97 375.51 242.09 375.51 229.1C367.67 213.9 363.75 194.42 363.75 170.67L366.1 142.35Q296.79 165.67 295.34 169.01L325.92 237.43L323.57 239.1L321.22 239.1L318.87 237.43L311.81 242.43L307.1 242.43C288.28 236.28 278.87 225.13 278.87 208.98L262.4 179Q259.49 179 256.14 178.19Q284.3 234.09 284.3 242.56L289.01 276L277.24 282.66L272.54 282.66Q262.89 280.4 257.2 274.4L257.2 274.4Q249.01 265.75 249.01 249.35Q249.01 234.1 232.54 200.91L204.31 200.91L204.31 220.81Q212.21 240.04 215.35 250.5L219.51 269.72C218.19 285.52 213.3 293.43 204.85 293.43C194 290.18 187.06 286.72 184.04 283.05L184.04 269.72Q184.04 253.29 170.79 218.21Q169.72 217 168.92 215.63L168.92 215.63Q166.8 212.01 166.53 207.31Q164.72 202.82 162.74 198.08C160 195.45 155.76 193.06 150.02 190.92L147.67 189.25L147.67 187.59L150.02 185.92L154.63 179.39Q138.31 142.84 112.92 93.53L106.59 77.26L104.6 77.26L104.6 83.15Q104.6 160.68 119.26 217.95C115.39 217.95 111.17 219.41 106.59 222.31L102.42 222.31C89.03 218.38 78.6 208.04 71.12 191.3L35.47 111.35L33.47 111.35L33.47 136.46Q33.47 201.95 63.58 221.82Q65.22 222.9 66.95 223.85L68.94 229.74L54.29 235.64Q42.7 235.64 16.64 210.52Q0 176.44 0 129.16L0 96.48Q7.32 52.27 20.02 50.67Q20.5 50.61 20.99 50.61L22.98 50.61C23.7 52.92 29.31 55.39 39.81 58.04Q68.94 118.78 73.11 118.78L71.12 111.35L71.12 40.23Q77.86 2.52 87.39 1.8Q87.58 1.79 87.77 1.79L91.93 1.79L100.43 6.27L102.42 4.74Q105.95 6.36 108.47 8.95Q114.91 15.56 114.91 28.44Q145.16 90.5 166.49 136.14L166.49 129.16L171.19 89.05L171.19 82.39L180.6 74.06L187.66 74.06Q206.57 77.6 213.86 88.75Q214.01 88.98 214.16 89.22C215.25 89.02 216.37 88.92 217.52 88.92L217.52 75.59C221.87 68.85 227.35 65.47 233.99 65.47L238.7 72.26L241.05 70.6L243.4 70.6L248.11 73.93L250.46 72.26L257.7 83.92L349.45 75.59C365.25 80.04 373.16 85.59 373.16 92.25L330.63 125.57L330.63 127.23L382.57 107.24L389.63 107.24C405.31 111.26 413.15 117.37 413.15 125.57C409.28 125.57 406.31 131.72 404.23 144.01C412.82 141.24 423.58 138.5 436.5 135.82L438.67 135.82C439.42 136.11 440.14 136.4 440.84 136.69L440.84 121.62L434.33 124.67C417.92 121.94 409.71 116.17 409.71 107.37Q409.71 93.15 382.93 18.96L374.06 7.94C377.08 7.94 378.59 5.8 378.59 1.53L380.76 0L389.63 0ZM274.17 130.57C271.03 130.57 266.32 122.79 260.05 107.24L307.1 102.25L274.17 130.57ZM244.76 155.9L248.11 152.35L222.23 110.58C221.74 110.43 221.26 110.29 220.78 110.14Q234.19 135.4 244.76 155.9ZM204.31 154.14L204.31 175.8L209.02 179.26L218.43 179.26L206.66 154.14L204.31 154.14Z" fill="#121212" fill-opacity="1.000000" fill-rule="evenodd"/>
</svg>
